<mxfile host="app.diagrams.net" modified="2024-03-16T18:53:11.420Z" agent="Mozilla/5.0 (Macintosh; Intel Mac OS X 10_15_7) AppleWebKit/537.36 (KHTML, like Gecko) Chrome/122.0.0.0 Safari/537.36" etag="uaf7WHRyVjXQ6RJ-Ho-E" version="21.7.4" type="device">
  <diagram name="Page-1" id="7NyDV1kV_hjV8ZzJNzA2">
    <mxGraphModel dx="2074" dy="1152" grid="1" gridSize="10" guides="1" tooltips="1" connect="1" arrows="1" fold="1" page="1" pageScale="1" pageWidth="850" pageHeight="1100" math="0" shadow="0">
      <root>
        <mxCell id="0" />
        <mxCell id="1" parent="0" />
        <mxCell id="8S7N7l5rVUZX8Zuwoc3f-39" style="edgeStyle=orthogonalEdgeStyle;rounded=0;orthogonalLoop=1;jettySize=auto;html=1;entryX=0.5;entryY=1;entryDx=0;entryDy=0;" edge="1" parent="1" source="8S7N7l5rVUZX8Zuwoc3f-13" target="8S7N7l5rVUZX8Zuwoc3f-1">
          <mxGeometry relative="1" as="geometry" />
        </mxCell>
        <mxCell id="8S7N7l5rVUZX8Zuwoc3f-13" value="app backend&lt;br&gt;&lt;br&gt;&lt;br&gt;&lt;br&gt;&lt;br&gt;&lt;br&gt;&lt;br&gt;&lt;br&gt;&lt;br&gt;&lt;br&gt;&lt;br&gt;&lt;br&gt;&lt;br&gt;&lt;br&gt;&lt;br&gt;&lt;br&gt;&lt;br&gt;&lt;br&gt;&lt;br&gt;&lt;br&gt;&lt;br&gt;&lt;br&gt;&lt;br&gt;&lt;br&gt;&lt;br&gt;&lt;br&gt;&lt;br&gt;&lt;br&gt;&lt;br&gt;" style="rounded=0;whiteSpace=wrap;html=1;" vertex="1" parent="1">
          <mxGeometry x="670" y="420" width="600" height="460" as="geometry" />
        </mxCell>
        <mxCell id="8S7N7l5rVUZX8Zuwoc3f-38" style="edgeStyle=orthogonalEdgeStyle;rounded=0;orthogonalLoop=1;jettySize=auto;html=1;" edge="1" parent="1" source="8S7N7l5rVUZX8Zuwoc3f-1" target="8S7N7l5rVUZX8Zuwoc3f-13">
          <mxGeometry relative="1" as="geometry" />
        </mxCell>
        <mxCell id="8S7N7l5rVUZX8Zuwoc3f-40" value="constantly talking" style="edgeLabel;html=1;align=center;verticalAlign=middle;resizable=0;points=[];" vertex="1" connectable="0" parent="8S7N7l5rVUZX8Zuwoc3f-38">
          <mxGeometry x="0.0571" y="1" relative="1" as="geometry">
            <mxPoint as="offset" />
          </mxGeometry>
        </mxCell>
        <mxCell id="8S7N7l5rVUZX8Zuwoc3f-1" value="States:&lt;br&gt;&lt;br&gt;- Session&lt;br&gt;- CurrentMindmap&lt;br&gt;- CurNode" style="rounded=0;whiteSpace=wrap;html=1;" vertex="1" parent="1">
          <mxGeometry x="770" y="130" width="400" height="150" as="geometry" />
        </mxCell>
        <mxCell id="8S7N7l5rVUZX8Zuwoc3f-35" value="" style="edgeStyle=orthogonalEdgeStyle;rounded=0;orthogonalLoop=1;jettySize=auto;html=1;" edge="1" parent="1" source="8S7N7l5rVUZX8Zuwoc3f-3" target="8S7N7l5rVUZX8Zuwoc3f-34">
          <mxGeometry relative="1" as="geometry" />
        </mxCell>
        <mxCell id="8S7N7l5rVUZX8Zuwoc3f-3" value="ChatNodeBackend" style="whiteSpace=wrap;html=1;aspect=fixed;" vertex="1" parent="1">
          <mxGeometry x="900" y="500" width="140" height="140" as="geometry" />
        </mxCell>
        <mxCell id="8S7N7l5rVUZX8Zuwoc3f-27" style="edgeStyle=orthogonalEdgeStyle;rounded=0;orthogonalLoop=1;jettySize=auto;html=1;" edge="1" parent="1" source="8S7N7l5rVUZX8Zuwoc3f-4">
          <mxGeometry relative="1" as="geometry">
            <mxPoint x="330" y="550" as="targetPoint" />
          </mxGeometry>
        </mxCell>
        <mxCell id="8S7N7l5rVUZX8Zuwoc3f-28" value="parses" style="edgeLabel;html=1;align=center;verticalAlign=middle;resizable=0;points=[];" vertex="1" connectable="0" parent="8S7N7l5rVUZX8Zuwoc3f-27">
          <mxGeometry x="-0.4175" y="5" relative="1" as="geometry">
            <mxPoint x="-52" y="-5" as="offset" />
          </mxGeometry>
        </mxCell>
        <mxCell id="8S7N7l5rVUZX8Zuwoc3f-29" style="edgeStyle=orthogonalEdgeStyle;rounded=0;orthogonalLoop=1;jettySize=auto;html=1;" edge="1" parent="1" source="8S7N7l5rVUZX8Zuwoc3f-4" target="8S7N7l5rVUZX8Zuwoc3f-3">
          <mxGeometry relative="1" as="geometry" />
        </mxCell>
        <mxCell id="8S7N7l5rVUZX8Zuwoc3f-4" value="Session" style="whiteSpace=wrap;html=1;aspect=fixed;" vertex="1" parent="1">
          <mxGeometry x="730" y="440" width="100" height="100" as="geometry" />
        </mxCell>
        <mxCell id="8S7N7l5rVUZX8Zuwoc3f-25" style="edgeStyle=orthogonalEdgeStyle;rounded=0;orthogonalLoop=1;jettySize=auto;html=1;entryX=1.008;entryY=0.304;entryDx=0;entryDy=0;entryPerimeter=0;" edge="1" parent="1" source="8S7N7l5rVUZX8Zuwoc3f-5" target="8S7N7l5rVUZX8Zuwoc3f-7">
          <mxGeometry relative="1" as="geometry">
            <Array as="points">
              <mxPoint x="550" y="560" />
              <mxPoint x="550" y="699" />
            </Array>
          </mxGeometry>
        </mxCell>
        <mxCell id="8S7N7l5rVUZX8Zuwoc3f-26" value="parses" style="edgeLabel;html=1;align=center;verticalAlign=middle;resizable=0;points=[];" vertex="1" connectable="0" parent="8S7N7l5rVUZX8Zuwoc3f-25">
          <mxGeometry x="-0.3623" y="1" relative="1" as="geometry">
            <mxPoint as="offset" />
          </mxGeometry>
        </mxCell>
        <mxCell id="8S7N7l5rVUZX8Zuwoc3f-30" style="edgeStyle=orthogonalEdgeStyle;rounded=0;orthogonalLoop=1;jettySize=auto;html=1;entryX=0.014;entryY=0.636;entryDx=0;entryDy=0;entryPerimeter=0;" edge="1" parent="1" source="8S7N7l5rVUZX8Zuwoc3f-5" target="8S7N7l5rVUZX8Zuwoc3f-3">
          <mxGeometry relative="1" as="geometry" />
        </mxCell>
        <mxCell id="8S7N7l5rVUZX8Zuwoc3f-32" style="edgeStyle=orthogonalEdgeStyle;rounded=0;orthogonalLoop=1;jettySize=auto;html=1;entryX=0.5;entryY=1;entryDx=0;entryDy=0;" edge="1" parent="1" source="8S7N7l5rVUZX8Zuwoc3f-5" target="8S7N7l5rVUZX8Zuwoc3f-21">
          <mxGeometry relative="1" as="geometry">
            <Array as="points">
              <mxPoint x="770" y="900" />
              <mxPoint x="140" y="900" />
            </Array>
          </mxGeometry>
        </mxCell>
        <mxCell id="8S7N7l5rVUZX8Zuwoc3f-33" value="parses" style="edgeLabel;html=1;align=center;verticalAlign=middle;resizable=0;points=[];" vertex="1" connectable="0" parent="8S7N7l5rVUZX8Zuwoc3f-32">
          <mxGeometry x="0.0988" y="4" relative="1" as="geometry">
            <mxPoint as="offset" />
          </mxGeometry>
        </mxCell>
        <mxCell id="8S7N7l5rVUZX8Zuwoc3f-5" value="ConvoObserver" style="whiteSpace=wrap;html=1;aspect=fixed;" vertex="1" parent="1">
          <mxGeometry x="710" y="600" width="120" height="120" as="geometry" />
        </mxCell>
        <mxCell id="8S7N7l5rVUZX8Zuwoc3f-7" value="ChatGPT DOM" style="whiteSpace=wrap;html=1;aspect=fixed;" vertex="1" parent="1">
          <mxGeometry x="210" y="620" width="260" height="260" as="geometry" />
        </mxCell>
        <mxCell id="8S7N7l5rVUZX8Zuwoc3f-11" value="app&lt;br&gt;UI" style="rounded=0;whiteSpace=wrap;html=1;" vertex="1" parent="1">
          <mxGeometry x="580" y="620" width="60" height="260" as="geometry" />
        </mxCell>
        <mxCell id="8S7N7l5rVUZX8Zuwoc3f-14" value="" style="endArrow=classic;html=1;rounded=0;exitX=0;exitY=0.5;exitDx=0;exitDy=0;entryX=1;entryY=0.5;entryDx=0;entryDy=0;" edge="1" parent="1" source="8S7N7l5rVUZX8Zuwoc3f-11" target="8S7N7l5rVUZX8Zuwoc3f-7">
          <mxGeometry width="50" height="50" relative="1" as="geometry">
            <mxPoint x="400" y="430" as="sourcePoint" />
            <mxPoint x="450" y="380" as="targetPoint" />
          </mxGeometry>
        </mxCell>
        <mxCell id="8S7N7l5rVUZX8Zuwoc3f-15" value="renders" style="edgeLabel;html=1;align=center;verticalAlign=middle;resizable=0;points=[];" vertex="1" connectable="0" parent="8S7N7l5rVUZX8Zuwoc3f-14">
          <mxGeometry x="-0.06" relative="1" as="geometry">
            <mxPoint as="offset" />
          </mxGeometry>
        </mxCell>
        <mxCell id="8S7N7l5rVUZX8Zuwoc3f-20" value="url" style="rounded=0;whiteSpace=wrap;html=1;" vertex="1" parent="1">
          <mxGeometry x="210" y="555" width="260" height="50" as="geometry" />
        </mxCell>
        <mxCell id="8S7N7l5rVUZX8Zuwoc3f-21" value="chats" style="rounded=0;whiteSpace=wrap;html=1;" vertex="1" parent="1">
          <mxGeometry x="90" y="620" width="100" height="260" as="geometry" />
        </mxCell>
        <mxCell id="8S7N7l5rVUZX8Zuwoc3f-36" style="edgeStyle=orthogonalEdgeStyle;rounded=0;orthogonalLoop=1;jettySize=auto;html=1;entryX=1;entryY=0.5;entryDx=0;entryDy=0;" edge="1" parent="1" source="8S7N7l5rVUZX8Zuwoc3f-34" target="8S7N7l5rVUZX8Zuwoc3f-11">
          <mxGeometry relative="1" as="geometry" />
        </mxCell>
        <mxCell id="8S7N7l5rVUZX8Zuwoc3f-37" value="renders" style="edgeLabel;html=1;align=center;verticalAlign=middle;resizable=0;points=[];" vertex="1" connectable="0" parent="8S7N7l5rVUZX8Zuwoc3f-36">
          <mxGeometry x="-0.4511" y="2" relative="1" as="geometry">
            <mxPoint x="-66" y="-2" as="offset" />
          </mxGeometry>
        </mxCell>
        <mxCell id="8S7N7l5rVUZX8Zuwoc3f-34" value="FlowWise" style="whiteSpace=wrap;html=1;aspect=fixed;" vertex="1" parent="1">
          <mxGeometry x="1090" y="680" width="140" height="140" as="geometry" />
        </mxCell>
      </root>
    </mxGraphModel>
  </diagram>
</mxfile>
